<?xml version="1.0" standalone="no"?>
<!DOCTYPE svg PUBLIC "-//W3C//DTD SVG 20010904//EN"
 "http://www.w3.org/TR/2001/REC-SVG-20010904/DTD/svg10.dtd">
<svg version="1.0" xmlns="http://www.w3.org/2000/svg"
 width="1099.000000pt" height="1099.000000pt" viewBox="0 0 1099.000000 1099.000000"
 preserveAspectRatio="xMidYMid meet">
<metadata>
Created by potrace 1.14, written by Peter Selinger 2001-2017
</metadata>
<g transform="translate(0.000000,1099.000000) scale(0.100000,-0.100000)"
fill="#000000" stroke="none">
<path d="M8009 8256 c-2 -2 -42 -7 -89 -11 -47 -3 -92 -8 -100 -10 -8 -3 -35
-7 -60 -10 -25 -3 -52 -8 -60 -10 -8 -2 -31 -7 -50 -10 -100 -17 -307 -77
-440 -128 -260 -100 -567 -288 -790 -483 -78 -69 -259 -252 -305 -310 -22 -27
-50 -59 -62 -71 -12 -13 -53 -67 -92 -121 -247 -347 -388 -685 -466 -1117 -2
-11 -6 -42 -9 -70 -4 -27 -9 -68 -11 -90 -15 -125 -21 -443 -10 -540 2 -22 7
-68 10 -102 3 -34 8 -72 10 -85 2 -13 9 -57 15 -98 51 -321 191 -680 375 -965
160 -249 389 -504 614 -685 24 -19 48 -40 55 -45 12 -12 86 -65 161 -117 220
-152 531 -292 805 -362 61 -16 219 -47 260 -52 25 -3 56 -7 70 -10 65 -12 202
-19 385 -19 175 0 378 10 395 19 3 2 28 6 57 10 173 20 436 95 635 180 262
112 554 301 758 490 547 510 837 1077 907 1774 10 99 10 473 0 577 -28 292
-104 583 -220 840 -44 99 -63 135 -129 253 -24 44 -135 210 -162 243 -12 14
-32 41 -46 59 -56 75 -134 162 -264 292 -374 375 -863 638 -1361 734 -108 20
-127 23 -180 29 -27 3 -66 8 -85 11 -40 7 -515 15 -521 10z m571 -330 c246
-37 418 -85 624 -173 354 -151 698 -421 965 -757 141 -178 261 -386 345 -596
45 -114 111 -337 120 -408 3 -20 10 -64 16 -97 30 -178 34 -617 6 -760 -4 -25
-20 -117 -21 -130 -1 -5 -4 -23 -8 -40 -4 -16 -9 -39 -11 -51 -12 -63 -73
-252 -112 -348 -121 -297 -301 -564 -546 -808 -346 -346 -733 -563 -1178 -661
-63 -14 -136 -28 -162 -31 -64 -8 -126 -15 -168 -21 -37 -4 -407 -5 -450 -1
-180 19 -358 53 -512 100 -379 115 -712 323 -1018 635 -362 370 -581 788 -664
1272 -27 157 -30 202 -31 434 0 240 5 313 31 455 9 47 18 96 20 110 42 225
176 541 332 779 106 162 319 404 462 527 231 197 492 353 755 449 108 40 333
100 416 110 29 4 61 9 73 11 12 2 55 7 96 10 41 4 77 8 78 9 12 10 453 -5 542
-19z"/>
<path d="M2608 8245 c-2 -2 -48 -6 -102 -9 -55 -4 -109 -9 -120 -11 -12 -2
-39 -6 -62 -9 -140 -17 -386 -80 -553 -143 -565 -211 -1102 -674 -1422 -1228
-168 -289 -271 -597 -325 -965 -22 -151 -26 -551 -8 -710 66 -570 259 -1018
626 -1455 66 -79 279 -292 349 -351 294 -244 616 -419 955 -520 83 -24 225
-59 279 -68 53 -9 171 -25 241 -33 90 -10 511 -10 594 1 115 14 337 53 350 61
4 2 21 7 39 10 135 24 466 159 621 253 19 12 42 25 50 29 66 30 333 232 430
325 l46 43 -1 875 0 875 -140 1 c-77 0 -146 -2 -152 -4 -10 -3 -13 -177 -13
-823 l0 -819 -92 -68 c-51 -37 -122 -86 -158 -108 -36 -21 -75 -45 -85 -52
-48 -30 -248 -123 -339 -157 -90 -33 -273 -85 -351 -100 -76 -14 -227 -34
-295 -40 -76 -6 -341 -7 -415 -1 -58 5 -167 18 -190 22 -11 2 -36 6 -55 9
-186 25 -477 124 -676 230 -98 51 -276 163 -321 202 -12 10 -53 42 -91 72 -73
57 -286 267 -364 361 -145 174 -282 398 -362 595 -57 137 -113 315 -130 410
-45 245 -50 301 -51 530 0 178 7 311 20 389 3 14 7 36 9 49 2 12 7 40 11 62
13 72 65 262 96 352 201 572 708 1125 1274 1388 129 60 365 141 470 161 11 2
43 8 70 14 47 9 65 12 170 26 188 25 493 24 675 -2 440 -63 819 -227 1171
-507 l107 -85 43 38 c24 21 76 68 114 105 l70 65 -35 31 c-394 347 -882 581
-1355 649 -44 6 -91 13 -105 15 -91 13 -156 17 -322 20 -103 1 -188 1 -190 0z"/>
</g>
</svg>
